<svg version="1.1" xmlns="http://www.w3.org/2000/svg" viewBox="0 0 928.4333756387234 870">
  <!-- svg-source:excalidraw -->
  
  <defs>
    <style class="style-fonts">
      @font-face {
        font-family: "Virgil";
        src: url("https://excalidraw.com/Virgil.woff2");
      }
      @font-face {
        font-family: "Cascadia";
        src: url("https://excalidraw.com/Cascadia.woff2");
      }
    </style>
    
  </defs>
  <g transform="translate(251.59188482124364 76) rotate(0 165.26666259765625 12.5)"><text x="0" y="0" font-family="Virgil, Segoe UI Emoji" font-size="20px" fill="#1e1e1e" text-anchor="start" style="white-space: pre;" direction="ltr" dominant-baseline="text-before-edge">(df/load app [:recipe/id 1] Recipe)</text></g><g transform="translate(274.59188482124364 10) rotate(0 117.78333282470703 22.5)"><text x="0" y="0" font-family="Virgil, Segoe UI Emoji" font-size="36px" fill="#1e1e1e" text-anchor="start" style="white-space: pre;" direction="ltr" dominant-baseline="text-before-edge">1. Initial load</text></g><g transform="translate(90.59188482124364 185) rotate(0 111.69999694824219 50)"><text x="0" y="0" font-family="Virgil, Segoe UI Emoji" font-size="20px" fill="#1e1e1e" text-anchor="start" style="white-space: pre;" direction="ltr" dominant-baseline="text-before-edge">#1 Pancake Batter</text><text x="0" y="25" font-family="Virgil, Segoe UI Emoji" font-size="20px" fill="#1e1e1e" text-anchor="start" style="white-space: pre;" direction="ltr" dominant-baseline="text-before-edge">  4 piece #101 Eggs</text><text x="0" y="50" font-family="Virgil, Segoe UI Emoji" font-size="20px" fill="#1e1e1e" text-anchor="start" style="white-space: pre;" direction="ltr" dominant-baseline="text-before-edge">  0.25 kilo #102 Flour</text><text x="0" y="75" font-family="Virgil, Segoe UI Emoji" font-size="20px" fill="#1e1e1e" text-anchor="start" style="white-space: pre;" direction="ltr" dominant-baseline="text-before-edge">  0.5 litre #2 Yogurt</text></g><g stroke-linecap="round" transform="translate(745.5918848212436 120) rotate(0 43.5 45.5)"><path d="M48.71 0.51 C56.02 0.73, 64.03 5.57, 70.08 10.63 C76.13 15.69, 82.41 23.1, 85.02 30.87 C87.63 38.63, 87.9 49.31, 85.72 57.22 C83.55 65.13, 77.78 72.71, 71.99 78.34 C66.2 83.97, 58.55 89.37, 50.97 91 C43.4 92.63, 33.92 91.5, 26.56 88.13 C19.19 84.76, 11.2 77.51, 6.8 70.78 C2.39 64.05, 0.08 55.76, 0.12 47.75 C0.17 39.73, 3.07 29.72, 7.08 22.7 C11.1 15.68, 16.79 9.14, 24.23 5.64 C31.67 2.14, 46.6 2.16, 51.72 1.72 C56.84 1.28, 55.06 2.5, 54.94 2.99 M52.01 1.67 C59.1 2.6, 67.18 8.09, 72.64 13.57 C78.11 19.04, 82.86 26.57, 84.79 34.52 C86.72 42.46, 86.59 53.61, 84.24 61.23 C81.88 68.86, 76.82 75.3, 70.66 80.28 C64.51 85.27, 55.12 90.31, 47.29 91.14 C39.46 91.98, 30.86 89.21, 23.7 85.3 C16.54 81.39, 8.4 74.87, 4.33 67.68 C0.26 60.48, -1.22 50.39, -0.73 42.13 C-0.24 33.88, 2.42 24.62, 7.28 18.16 C12.15 11.69, 20.88 6.29, 28.48 3.33 C36.08 0.37, 49.18 0.67, 52.89 0.4 C56.6 0.13, 51.3 1.03, 50.75 1.71" stroke="#1e1e1e" stroke-width="1" fill="none"></path></g><g transform="translate(774.2660732365405 152.82664145601208) rotate(0 15.066666603088379 12.500000000000014)"><text x="15.066666603088379" y="0" font-family="Virgil, Segoe UI Emoji" font-size="20px" fill="#1e1e1e" text-anchor="middle" style="white-space: pre;" direction="ltr" dominant-baseline="text-before-edge">DB</text></g><g mask="url(#mask-FJrpZzIq3QVFMVXr0TYp0)" stroke-linecap="round"><g transform="translate(139.59188482124364 157) rotate(0 302.31455884795645 -16.06106893799091)"><path d="M0.85 0.09 C51.94 -7.19, 205.62 -46.17, 305.85 -44.36 C406.09 -42.54, 552.94 1.87, 602.28 10.98 M-0.16 -0.91 C50.9 -7.96, 204.53 -45.21, 305.36 -43 C406.18 -40.8, 555.43 3.28, 604.79 12.29" stroke="#1e1e1e" stroke-width="1" fill="none"></path></g><g transform="translate(139.59188482124364 157) rotate(0 302.31455884795645 -16.06106893799091)"><path d="M575.16 17.4 C581.72 13.65, 589.57 12.07, 603.69 10.64 M575.77 15.78 C585.08 15.39, 594.6 13.37, 605.21 11.97" stroke="#1e1e1e" stroke-width="1" fill="none"></path></g><g transform="translate(139.59188482124364 157) rotate(0 302.31455884795645 -16.06106893799091)"><path d="M579.76 -2.6 C585.08 -1.42, 591.81 1.89, 603.69 10.64 M580.37 -4.22 C588.29 1.62, 596.37 5.87, 605.21 11.97" stroke="#1e1e1e" stroke-width="1" fill="none"></path></g></g><mask id="mask-FJrpZzIq3QVFMVXr0TYp0"><rect x="0" y="0" fill="#fff" width="842.5918848212436" height="312"></rect><rect x="441.8752181227878" y="100.5" fill="#000" width="5.433333396911621" height="25" opacity="1"></rect></mask><g transform="translate(441.8752181227878 100.5) rotate(0 0.03122554641225861 40.43893106200909)"><text x="2.7166666984558105" y="0" font-family="Virgil, Segoe UI Emoji" font-size="20px" fill="#1e1e1e" text-anchor="middle" style="white-space: pre;" direction="ltr" dominant-baseline="text-before-edge">1</text></g><g mask="url(#mask-VnugMVXBnuubZEN6K5ikt)" stroke-linecap="round"><g transform="translate(747.5918848212436 196) rotate(0 -197.50250654388213 19.270936930552125)"><path d="M-0.6 -0.92 C-26.8 4.51, -90.55 24.76, -156.33 31.49 C-222.12 38.22, -355.75 38.11, -395.34 39.46 M1.28 1.21 C-25.1 6.37, -90.67 23.59, -156.93 29.62 C-223.19 35.64, -356.32 36.07, -396.28 37.36" stroke="#1e1e1e" stroke-width="1" fill="none"></path></g><g transform="translate(747.5918848212436 196) rotate(0 -197.50250654388213 19.270936930552125)"><path d="M-369.83 27.66 C-377.98 29.86, -388.42 36.33, -395.24 37.67 M-368.1 27.31 C-375.64 28.46, -381.88 31.22, -396.22 37.22" stroke="#1e1e1e" stroke-width="1" fill="none"></path></g><g transform="translate(747.5918848212436 196) rotate(0 -197.50250654388213 19.270936930552125)"><path d="M-369.43 48.18 C-377.55 42.76, -388.14 41.59, -395.24 37.67 M-367.7 47.83 C-375.36 44.06, -381.69 41.91, -396.22 37.22" stroke="#1e1e1e" stroke-width="1" fill="none"></path></g></g><mask id="mask-VnugMVXBnuubZEN6K5ikt"><rect x="0" y="0" fill="#fff" width="1242.5918848212436" height="335"></rect><rect x="583.4752180274204" y="214.5" fill="#000" width="14.233333587646484" height="25" opacity="1"></rect></mask><g transform="translate(583.4752180274204 214.5) rotate(0 -33.38583975005889 0.770936930552125)"><text x="7.116666793823242" y="0" font-family="Virgil, Segoe UI Emoji" font-size="20px" fill="#1e1e1e" text-anchor="middle" style="white-space: pre;" direction="ltr" dominant-baseline="text-before-edge">2</text></g><g stroke-linecap="round" transform="translate(86.59188482124364 183) rotate(0 118 56)"><path d="M28 0 M28 0 C85.89 0.29, 141.92 0.01, 208 0 M28 0 C75.54 0.06, 122.53 -0.25, 208 0 M208 0 C225.18 1.77, 237.24 11.13, 236 28 M208 0 C227.14 -1.51, 238.09 8.55, 236 28 M236 28 C235.6 42.66, 237.46 57.36, 236 84 M236 28 C237.13 45.04, 236.92 61.01, 236 84 M236 84 C236.47 101.66, 224.71 112.13, 208 112 M236 84 C237.35 103.2, 227.44 110.02, 208 112 M208 112 C167.33 114.37, 131.7 111.81, 28 112 M208 112 C145.76 114.37, 84.47 112.55, 28 112 M28 112 C9.85 113.34, 1.36 102.27, 0 84 M28 112 C8.53 113.27, 0.44 103.08, 0 84 M0 84 C1.14 72.08, -1.6 60.07, 0 28 M0 84 C-0.98 62.27, -1.01 40.62, 0 28 M0 28 C-1.97 11.12, 8.98 -1.16, 28 0 M0 28 C-1.86 9.13, 9 -1.92, 28 0" stroke="#1e1e1e" stroke-width="1" fill="none"></path></g><g stroke-linecap="round" transform="translate(105.59188482124364 208) rotate(0 93 14.5)"><path d="M7.25 0 M7.25 0 C43.15 -0.58, 80.66 0.31, 178.75 0 M7.25 0 C50.9 -0.5, 96.37 1.21, 178.75 0 M178.75 0 C181.73 1.12, 187.48 2.32, 186 7.25 M178.75 0 C183.03 -1.02, 187.3 3.08, 186 7.25 M186 7.25 C185.79 11.32, 185.28 16.82, 186 21.75 M186 7.25 C185.29 11.74, 185.83 17.28, 186 21.75 M186 21.75 C184.65 27.25, 183.96 29.37, 178.75 29 M186 21.75 C186.13 28.09, 185.19 30.28, 178.75 29 M178.75 29 C130.84 28.06, 83.46 28.72, 7.25 29 M178.75 29 C129.15 27.19, 80.96 27.22, 7.25 29 M7.25 29 C3.77 30.94, -0.53 25.14, 0 21.75 M7.25 29 C1.5 27.94, 1.1 28.57, 0 21.75 M0 21.75 C-0.97 16.45, -1.48 11.59, 0 7.25 M0 21.75 C0.5 15.4, 0.49 11, 0 7.25 M0 7.25 C2 3.13, 2.6 1.3, 7.25 0 M0 7.25 C2.27 3.81, 3.34 -2.15, 7.25 0" stroke="#1e1e1e" stroke-width="1" fill="none"></path></g><g stroke-linecap="round" transform="translate(104.59188482124364 259) rotate(0 103 14.5)"><path d="M7.25 0 M7.25 0 C68.57 -1.61, 124.68 0.28, 198.75 0 M7.25 0 C49.37 -1.5, 89.59 -1.21, 198.75 0 M198.75 0 C205.55 1.21, 206.8 0.55, 206 7.25 M198.75 0 C204.8 1.36, 205.74 2.72, 206 7.25 M206 7.25 C205.99 11.73, 205.97 13.79, 206 21.75 M206 7.25 C205.32 11.79, 205.44 14.58, 206 21.75 M206 21.75 C204.94 26.66, 203.53 28.91, 198.75 29 M206 21.75 C208.09 26.52, 203.52 30.39, 198.75 29 M198.75 29 C156.12 26.72, 110.91 28.69, 7.25 29 M198.75 29 C136.39 27.29, 75.04 28.94, 7.25 29 M7.25 29 C1.96 28.02, -0.98 26.52, 0 21.75 M7.25 29 C4.34 28.34, 1.63 27.07, 0 21.75 M0 21.75 C-0.93 16.5, 0.01 13.64, 0 7.25 M0 21.75 C-0.71 18.12, 0.61 14.13, 0 7.25 M0 7.25 C-0.28 4.23, 4.24 1.83, 7.25 0 M0 7.25 C0.39 2.43, 4.64 -2.26, 7.25 0" stroke="#1e1e1e" stroke-width="1" fill="none"></path></g><g stroke-linecap="round" transform="translate(109.59188482124364 237) rotate(0 103.5 11.5)"><path d="M5.75 0 M5.75 0 C68.71 -1.12, 133.68 2.17, 201.25 0 M5.75 0 C59.94 1.79, 113.91 1.67, 201.25 0 M201.25 0 C205.51 -0.35, 207.83 0.79, 207 5.75 M201.25 0 C203.7 -1.82, 207.1 2.05, 207 5.75 M207 5.75 C205.88 9.22, 207.98 12.11, 207 17.25 M207 5.75 C207.63 9.14, 207.11 12.89, 207 17.25 M207 17.25 C205.04 22.35, 206.04 23.72, 201.25 23 M207 17.25 C207.65 21.12, 205.84 23.04, 201.25 23 M201.25 23 C138.04 24.11, 78.99 22.46, 5.75 23 M201.25 23 C148.93 22.39, 95.51 22.56, 5.75 23 M5.75 23 C2.89 21.02, -0.48 22.61, 0 17.25 M5.75 23 C2.45 20.9, -1.77 21.06, 0 17.25 M0 17.25 C-0.42 13.72, 0.07 11.41, 0 5.75 M0 17.25 C-0.5 15.31, 0.08 12.12, 0 5.75 M0 5.75 C-1.6 0.75, 2.87 1.72, 5.75 0 M0 5.75 C1.33 2.88, 1.15 1.8, 5.75 0" stroke="#1e1e1e" stroke-width="1" fill="none"></path></g><g stroke-linecap="round" transform="translate(188.59188482124364 210) rotate(0 48.5 12.5)"><path d="M6.25 0 M6.25 0 C32.96 0.02, 59.03 0.38, 90.75 0 M6.25 0 C23.46 -1.55, 39.44 -0.65, 90.75 0 M90.75 0 C94.85 0.24, 95.41 1.37, 97 6.25 M90.75 0 C94.69 0.17, 98.97 0.04, 97 6.25 M97 6.25 C98.13 9.28, 96.47 11.25, 97 18.75 M97 6.25 C97.42 9.54, 96.85 12.78, 97 18.75 M97 18.75 C95.03 22.03, 94.22 23.31, 90.75 25 M97 18.75 C97.06 22.01, 96.44 25.97, 90.75 25 M90.75 25 C68.19 25.58, 45.1 24.25, 6.25 25 M90.75 25 C62.8 24.79, 36.08 25.33, 6.25 25 M6.25 25 C1.56 23.91, 0.3 23.28, 0 18.75 M6.25 25 C0.81 25.05, 0.63 23.79, 0 18.75 M0 18.75 C-1.14 16.57, 0.79 12.73, 0 6.25 M0 18.75 C-0.55 15.19, -0.69 11.68, 0 6.25 M0 6.25 C1.5 1.89, 2.37 0.75, 6.25 0 M0 6.25 C-0.23 3.37, 2.52 1.97, 6.25 0" stroke="#1e1e1e" stroke-width="1" fill="none"></path></g><g stroke-linecap="round" transform="translate(202.59188482124364 263) rotate(0 51.5 11.5)"><path d="M5.75 0 M5.75 0 C27.1 -0.12, 51.2 0.59, 97.25 0 M5.75 0 C25.09 0.05, 46.88 -0.81, 97.25 0 M97.25 0 C100.64 1.65, 103.58 0.49, 103 5.75 M97.25 0 C100.75 -2.15, 102.51 3.64, 103 5.75 M103 5.75 C102.9 9.73, 103.23 13.41, 103 17.25 M103 5.75 C103.29 9.76, 103.3 13.15, 103 17.25 M103 17.25 C104.15 20.58, 102.46 22.91, 97.25 23 M103 17.25 C103.7 19.39, 102.67 21.98, 97.25 23 M97.25 23 C60.2 23.72, 26.37 24.89, 5.75 23 M97.25 23 C74.77 22.63, 52.18 22.03, 5.75 23 M5.75 23 C1.25 21.31, -1.04 21.2, 0 17.25 M5.75 23 C2.53 22.82, 0.8 21.76, 0 17.25 M0 17.25 C-0.35 14.5, 0.67 10.4, 0 5.75 M0 17.25 C-0.39 13.28, -0.2 10.69, 0 5.75 M0 5.75 C-1.76 0.76, 0.31 -0.22, 5.75 0 M0 5.75 C-0.52 3.47, 2.67 0.99, 5.75 0" stroke="#1e1e1e" stroke-width="1" fill="none"></path></g><g stroke-linecap="round" transform="translate(207.59188482124364 238) rotate(0 54 9.5)"><path d="M4.75 0 M4.75 0 C29.43 -0.11, 58.92 -1.03, 103.25 0 M4.75 0 C28.37 0.79, 52.77 0.54, 103.25 0 M103.25 0 C105.79 -0.71, 109.72 0.24, 108 4.75 M103.25 0 C108.5 1.52, 107.43 0.75, 108 4.75 M108 4.75 C107.67 7.05, 108.6 10.44, 108 14.25 M108 4.75 C107.68 6.71, 107.53 9.79, 108 14.25 M108 14.25 C107.92 17.27, 108.09 17.65, 103.25 19 M108 14.25 C109.97 15.14, 104.86 17.5, 103.25 19 M103.25 19 C69.59 17.69, 32.26 19.66, 4.75 19 M103.25 19 C65.26 18.55, 28.81 19.06, 4.75 19 M4.75 19 C2.26 17.27, -1.01 16.65, 0 14.25 M4.75 19 C0.59 19.24, -1.57 19.12, 0 14.25 M0 14.25 C-0.67 12.15, 0.63 8, 0 4.75 M0 14.25 C0.05 11.82, 0.56 9.18, 0 4.75 M0 4.75 C-1.99 1.24, 0.87 -2, 4.75 0 M0 4.75 C1.16 0.32, 3.65 -1.16, 4.75 0" stroke="#1e1e1e" stroke-width="1" fill="none"></path></g><g transform="translate(204.59188482124364 327) rotate(0 65.05000305175781 12.5)"><text x="0" y="0" font-family="Virgil, Segoe UI Emoji" font-size="20px" fill="#1971c2" text-anchor="start" style="white-space: pre;" direction="ltr" dominant-baseline="text-before-edge">ui/expand? nil</text></g><g stroke-linecap="round"><g transform="translate(262.56917633050875 318) rotate(0 -0.48686068362468404 -16.842837377302374)"><path d="M-0.82 -0.93 C-0.92 -6.29, -0.97 -27.74, -0.98 -33.19 M0.95 1.2 C0.73 -4.4, -1.5 -28.73, -1.92 -34.88" stroke="#1971c2" stroke-width="1" fill="none"></path></g><g transform="translate(262.56917633050875 318) rotate(0 -0.48686068362468404 -16.842837377302374)"><path d="M3.85 -19.42 C4.57 -23.44, 2.13 -26.34, -2.05 -34.69 M5.28 -20.21 C4.23 -22.88, 1.08 -27.58, -2.2 -34.11" stroke="#1971c2" stroke-width="1" fill="none"></path></g><g transform="translate(262.56917633050875 318) rotate(0 -0.48686068362468404 -16.842837377302374)"><path d="M-7.75 -18.48 C-3.93 -22.67, -3.3 -25.82, -2.05 -34.69 M-6.32 -19.27 C-4.37 -22.25, -4.55 -27.19, -2.2 -34.11" stroke="#1971c2" stroke-width="1" fill="none"></path></g></g><mask></mask><g transform="translate(119.59188482124364 481) rotate(0 45.150001525878906 12.5)"><text x="0" y="0" font-family="Virgil, Segoe UI Emoji" font-size="20px" fill="#1e1e1e" text-anchor="start" style="white-space: pre;" direction="ltr" dominant-baseline="text-before-edge">▶ Yogurt</text></g><g stroke-linecap="round" transform="translate(116.59188482124364 476) rotate(0 49 17.5)"><path d="M8.75 0 M8.75 0 C32.81 0.04, 58.29 0.01, 89.25 0 M8.75 0 C33.3 -1.24, 57.23 -0.89, 89.25 0 M89.25 0 C94.93 -1.14, 99.39 4.11, 98 8.75 M89.25 0 C94.39 -1.49, 96.61 3.51, 98 8.75 M98 8.75 C99.48 15.09, 97.32 18.83, 98 26.25 M98 8.75 C97.45 12.1, 97.81 16.03, 98 26.25 M98 26.25 C99.42 32.03, 94.44 34.13, 89.25 35 M98 26.25 C98.26 33.89, 97.12 35.04, 89.25 35 M89.25 35 C63.99 35, 42.07 33.63, 8.75 35 M89.25 35 C70.83 34, 52.84 35.57, 8.75 35 M8.75 35 C3.7 35.4, 0.98 33.44, 0 26.25 M8.75 35 C0.96 32.83, 1.65 31.98, 0 26.25 M0 26.25 C-1.62 17.85, -0.3 10.9, 0 8.75 M0 26.25 C0.78 21.05, 0.72 15.02, 0 8.75 M0 8.75 C-1.88 1.4, 4.21 -1.94, 8.75 0 M0 8.75 C1.71 4.48, 1.3 1.1, 8.75 0" stroke="#1e1e1e" stroke-width="1" fill="none"></path></g><g stroke-linecap="round"><g transform="translate(90.59188482124364 459) rotate(0 8.5 14.5)"><path d="M0 0 C4.86 8.29, 9.72 16.58, 17 29 M0 0 C6.2 10.57, 12.39 21.14, 17 29" stroke="#1e1e1e" stroke-width="4" fill="none"></path></g><g transform="translate(90.59188482124364 459) rotate(0 8.5 14.5)"><path d="M17 29 L4.66 20.48 L15.59 14.07 L17 29" stroke="none" stroke-width="0" fill="#1e1e1e" fill-rule="evenodd"></path><path d="M17 29 C13.47 26.56, 9.94 24.13, 4.66 20.48 M17 29 C12.5 25.89, 8 22.79, 4.66 20.48 M4.66 20.48 C7.5 18.81, 10.34 17.15, 15.59 14.07 M4.66 20.48 C7.03 19.09, 9.4 17.7, 15.59 14.07 M15.59 14.07 C15.94 17.74, 16.29 21.41, 17 29 M15.59 14.07 C16.07 19.13, 16.55 24.19, 17 29 M17 29 C17 29, 17 29, 17 29 M17 29 C17 29, 17 29, 17 29" stroke="#1e1e1e" stroke-width="4" fill="none"></path></g></g><mask></mask><g transform="translate(294.59188482124364 484) rotate(0 76.66666412353516 12.5)"><text x="0" y="0" font-family="Virgil, Segoe UI Emoji" font-size="20px" fill="#1971c2" text-anchor="start" style="white-space: pre;" direction="ltr" dominant-baseline="text-before-edge">ui/expand? true</text></g><g transform="translate(300.59188482124364 608) rotate(0 67.19999694824219 12.5)"><text x="0" y="0" font-family="Virgil, Segoe UI Emoji" font-size="20px" fill="#1e1e1e" text-anchor="start" style="white-space: pre;" direction="ltr" dominant-baseline="text-before-edge">DynamicRecipe</text></g><g transform="translate(303.59188482124364 717) rotate(0 58.66666793823242 12.5)"><text x="0" y="0" font-family="Virgil, Segoe UI Emoji" font-size="20px" fill="#1e1e1e" text-anchor="start" style="white-space: pre;" direction="ltr" dominant-baseline="text-before-edge">use-lifecycle</text></g><g stroke-linecap="round" transform="translate(762.0918848212436 702.5) rotate(0 43.5 45.5)"><path d="M42.98 0.46 C50.67 -0.23, 60.75 3.62, 67.39 7.81 C74.04 12, 79.55 18.19, 82.84 25.6 C86.13 33, 88.16 44.04, 87.12 52.24 C86.09 60.45, 81.89 68.82, 76.62 74.81 C71.35 80.8, 62.84 85.8, 55.49 88.2 C48.14 90.59, 39.78 91.14, 32.53 89.18 C25.28 87.23, 17.25 82.6, 11.98 76.47 C6.71 70.35, 2.24 60.79, 0.88 52.45 C-0.47 44.1, 0.69 33.83, 3.83 26.42 C6.98 19, 12.03 12.45, 19.75 7.96 C27.48 3.48, 43.94 0.22, 50.19 -0.47 C56.45 -1.16, 57.35 3, 57.28 3.85 M59.95 4.24 C66.93 6.45, 72.72 11.1, 77.31 17.65 C81.9 24.19, 86.86 35.14, 87.48 43.52 C88.1 51.9, 84.93 60.88, 81.03 67.94 C77.13 74.99, 71.04 82.2, 64.08 85.85 C57.11 89.51, 47.11 90.72, 39.22 89.89 C31.34 89.06, 22.84 85.75, 16.77 80.89 C10.69 76.02, 5.44 68.51, 2.76 60.71 C0.08 52.91, -0.93 41.91, 0.7 34.08 C2.34 26.24, 7.07 19.47, 12.56 13.72 C18.04 7.97, 25.84 1.56, 33.59 -0.42 C41.34 -2.39, 54.89 1.16, 59.08 1.85 C63.26 2.54, 59.04 2.83, 58.69 3.72" stroke="#1e1e1e" stroke-width="1" fill="none"></path></g><g transform="translate(790.7660732365405 735.3266414560121) rotate(0 15.066666603088379 12.5)"><text x="15.066666603088379" y="0" font-family="Virgil, Segoe UI Emoji" font-size="20px" fill="#1e1e1e" text-anchor="middle" style="white-space: pre;" direction="ltr" dominant-baseline="text-before-edge">DB</text></g><g transform="translate(243.8085519965366 383.5) rotate(0 164.56666564941406 22.5)"><text x="0" y="0" font-family="Virgil, Segoe UI Emoji" font-size="36px" fill="#1e1e1e" text-anchor="start" style="white-space: pre;" direction="ltr" dominant-baseline="text-before-edge">2. Load sub-recipe</text></g><g stroke-linecap="round"><g transform="translate(225.59188482124364 491) rotate(0 31.397245998494327 2.377801587805152)"><path d="M1.15 -0.47 C18.15 2.07, 35.84 4.58, 61.31 5.22 M-0.27 0.83 C25.48 2.1, 48.17 4.19, 63.06 3.09" stroke="#1e1e1e" stroke-width="1" fill="none"></path></g><g transform="translate(225.59188482124364 491) rotate(0 31.397245998494327 2.377801587805152)"><path d="M36.19 13.32 C43.15 11.32, 50.71 9.57, 61.37 4.31 M34.77 14.62 C46.83 9.95, 55.89 6.31, 63.12 2.18" stroke="#1e1e1e" stroke-width="1" fill="none"></path></g><g transform="translate(225.59188482124364 491) rotate(0 31.397245998494327 2.377801587805152)"><path d="M35.87 -7.2 C42.79 -3.25, 50.44 0.94, 61.37 4.31 M34.45 -5.9 C46.71 -2.58, 55.89 1.78, 63.12 2.18" stroke="#1e1e1e" stroke-width="1" fill="none"></path></g></g><mask></mask><g mask="url(#mask-OpQPyIlBq0eaYf289bUfq)" stroke-linecap="round"><g transform="translate(371.0029471927272 518) rotate(0 -1.41309071127057 43.54573385184631)"><path d="M-0.42 1.42 C-0.25 26.72, -3.45 50.55, -2.94 87.92 M0.17 -0.83 C-1.01 31.34, -3.5 63.77, -2.19 85.29" stroke="#1e1e1e" stroke-width="1" fill="none"></path></g><g transform="translate(371.0029471927272 518) rotate(0 -1.41309071127057 43.54573385184631)"><path d="M-13.24 58.65 C-8.76 66.67, -7.99 73.28, -2.4 87.21 M-12.65 56.41 C-8.32 67.03, -5.87 78.03, -1.65 84.58" stroke="#1e1e1e" stroke-width="1" fill="none"></path></g><g transform="translate(371.0029471927272 518) rotate(0 -1.41309071127057 43.54573385184631)"><path d="M7.28 58.38 C5.66 66.58, 0.34 73.28, -2.4 87.21 M7.87 56.14 C4.61 67.05, -0.53 78.15, -1.65 84.58" stroke="#1e1e1e" stroke-width="1" fill="none"></path></g></g><mask id="mask-OpQPyIlBq0eaYf289bUfq"><rect x="0" y="0" fill="#fff" width="473.7356918759044" height="704"></rect><rect x="339.7532416449618" y="548.5" fill="#000" width="59.766666412353516" height="25" opacity="1"></rect></mask><g transform="translate(339.7532416449619 548.5) rotate(0 29.836614836494732 13.045733851846308)"><text x="29.883333206176758" y="0" font-family="Virgil, Segoe UI Emoji" font-size="20px" fill="#1e1e1e" text-anchor="middle" style="white-space: pre;" direction="ltr" dominant-baseline="text-before-edge">render</text></g><g mask="url(#mask-T48uixacEuDL5Fk_P2mAs)" stroke-linecap="round"><g transform="translate(371.36840936064095 647) rotate(0 -2.507111743703149 32.040232924278826)"><path d="M1.02 -1.5 C0.72 19.56, -1.29 40.22, -6.04 63.05 M-0.45 0.04 C-1.58 21.88, -3.08 46.26, -4.19 65.59" stroke="#1e1e1e" stroke-width="1" fill="none"></path></g><g transform="translate(371.36840936064095 647) rotate(0 -2.507111743703149 32.040232924278826)"><path d="M-11.76 35.34 C-8.29 45.2, -6.21 54.65, -5.61 63.63 M-13.23 36.89 C-9.99 45.93, -6.88 57.66, -3.76 66.17" stroke="#1e1e1e" stroke-width="1" fill="none"></path></g><g transform="translate(371.36840936064095 647) rotate(0 -2.507111743703149 32.040232924278826)"><path d="M8.72 36.54 C5.86 46.03, 1.6 55.11, -5.61 63.63 M7.26 38.09 C3.34 46.92, -0.7 58.23, -3.76 66.17" stroke="#1e1e1e" stroke-width="1" fill="none"></path></g></g><mask id="mask-T48uixacEuDL5Fk_P2mAs"><rect x="0" y="0" fill="#fff" width="475.98886723833584" height="812"></rect><rect x="337.1248479785562" y="667" fill="#000" width="63.86666488647461" height="25" opacity="1"></rect></mask><g transform="translate(337.1248479785562 667) rotate(0 31.7364496383816 12.040232924278826)"><text x="31.933332443237305" y="0" font-family="Virgil, Segoe UI Emoji" font-size="20px" fill="#1e1e1e" text-anchor="middle" style="white-space: pre;" direction="ltr" dominant-baseline="text-before-edge">trigger</text></g><g stroke-linecap="round" transform="translate(293.59188482124364 602) rotate(0 74 20.5)"><path d="M-0.19 -1.29 C52.11 0.71, 101.65 0.85, 149.52 -0.31 M-0.53 0.49 C51.23 -1.39, 103.74 -1.19, 147.82 -0.79 M147.22 0.54 C146.73 11.11, 149.58 21.13, 149.32 41.31 M147.84 -0.53 C147.67 11.28, 148.63 22.42, 148.93 40.73 M147.34 41.8 C115.33 42.82, 85.33 43.5, -1.4 39.81 M147.9 40.4 C117.57 42.31, 88.45 41.84, 0.33 40.75 M0.73 42.26 C1.68 29.31, 0.84 18.57, -1.35 1.35 M0.53 41.55 C-0.64 24.81, 0.94 8.75, 0.18 -0.52" stroke="#1e1e1e" stroke-width="1" fill="none"></path></g><g mask="url(#mask-t2HlmqOiM15ZbbanPoX7-)" stroke-linecap="round"><g transform="translate(429.59188482124364 738.6769671719799) rotate(0 163.72319846514335 -12.558151749061949)"><path d="M0.4 0.16 C28.59 -3.99, 113.77 -25.69, 168.03 -25.84 C222.28 -25.99, 299.6 -4.8, 325.94 -0.74 M-0.85 -0.81 C27.38 -4.76, 112.76 -25.17, 167.62 -24.91 C222.48 -24.66, 301.92 -3.32, 328.3 0.72" stroke="#1e1e1e" stroke-width="1" fill="none"></path></g><g transform="translate(429.59188482124364 738.6769671719799) rotate(0 163.72319846514335 -12.558151749061949)"><path d="M298.89 6.91 C302.79 2.47, 311.26 1.8, 327.49 -0.31 M297.87 4.58 C308.63 3.28, 318.67 1.42, 328.36 1.55" stroke="#1e1e1e" stroke-width="1" fill="none"></path></g><g transform="translate(429.59188482124364 738.6769671719799) rotate(0 163.72319846514335 -12.558151749061949)"><path d="M302.96 -13.21 C305.86 -13.52, 313.5 -10.09, 327.49 -0.31 M301.93 -15.54 C311.34 -10.2, 320.04 -5.42, 328.36 1.55" stroke="#1e1e1e" stroke-width="1" fill="none"></path></g></g><mask id="mask-t2HlmqOiM15ZbbanPoX7-"><rect x="0" y="0" fill="#fff" width="856.5627071414833" height="863.3539351152878"></rect><rect x="593.8752181227878" y="701.4999992286721" fill="#000" width="5.433333396911621" height="25" opacity="1"></rect></mask><g transform="translate(593.8752181227878 701.499999228672) rotate(0 -0.5601348364008345 24.618816194245937)"><text x="2.7166666984558105" y="0" font-family="Virgil, Segoe UI Emoji" font-size="20px" fill="#1e1e1e" text-anchor="middle" style="white-space: pre;" direction="ltr" dominant-baseline="text-before-edge">1</text></g><g transform="translate(458.59188482124364 676.5) rotate(0 137.11666870117188 10)"><text x="0" y="0" font-family="Virgil, Segoe UI Emoji" font-size="16px" fill="#1e1e1e" text-anchor="start" style="white-space: pre;" direction="ltr" dominant-baseline="text-before-edge">(df/load this [:recipe/id 2] Recipe)</text></g><g transform="translate(307.59188482124364 760) rotate(0 147.1666717529297 50)"><text x="0" y="0" font-family="Virgil, Segoe UI Emoji" font-size="20px" fill="#1e1e1e" text-anchor="start" style="white-space: pre;" direction="ltr" dominant-baseline="text-before-edge">#2 Yogurt</text><text x="0" y="25" font-family="Virgil, Segoe UI Emoji" font-size="20px" fill="#1e1e1e" text-anchor="start" style="white-space: pre;" direction="ltr" dominant-baseline="text-before-edge">    1 litre #103 Milk</text><text x="0" y="50" font-family="Virgil, Segoe UI Emoji" font-size="20px" fill="#1e1e1e" text-anchor="start" style="white-space: pre;" direction="ltr" dominant-baseline="text-before-edge">    10 g #104 Yogurt-Starter</text><text x="0" y="75" font-family="Virgil, Segoe UI Emoji" font-size="20px" fill="#1e1e1e" text-anchor="start" style="white-space: pre;" direction="ltr" dominant-baseline="text-before-edge"></text></g><g stroke-linecap="round" transform="translate(302.59188482124364 758) rotate(0 157.5 43)"><path d="M21.5 0 M21.5 0 C121.96 -0.19, 219.15 -2.11, 293.5 0 M21.5 0 C81.63 -2.09, 140.85 -0.68, 293.5 0 M293.5 0 C308.84 1.56, 313.12 8.2, 315 21.5 M293.5 0 C306.83 1.15, 316.08 8.23, 315 21.5 M315 21.5 C316.26 35.19, 313.02 50.17, 315 64.5 M315 21.5 C314.58 32.78, 313.9 46.37, 315 64.5 M315 64.5 C313.68 78.6, 306.46 85.69, 293.5 86 M315 64.5 C314.27 77.16, 309.58 85.46, 293.5 86 M293.5 86 C229.17 85.91, 165.72 87.18, 21.5 86 M293.5 86 C207.76 88.24, 121.95 88.35, 21.5 86 M21.5 86 C5.34 87.7, 0.88 77.37, 0 64.5 M21.5 86 C6.33 85.88, 2.18 78.3, 0 64.5 M0 64.5 C-1.87 48.07, 0.01 35.09, 0 21.5 M0 64.5 C0.33 55.37, 0.47 45.39, 0 21.5 M0 21.5 C-0.57 5.57, 6.27 0.08, 21.5 0 M0 21.5 C-0.7 7.14, 5.99 -0.9, 21.5 0" stroke="#1e1e1e" stroke-width="1" fill="none"></path></g><g stroke-linecap="round" transform="translate(344.59188482124364 780) rotate(0 85.5 15)"><path d="M7.5 0 M7.5 0 C61.06 2.46, 114.37 1.43, 163.5 0 M7.5 0 C53.78 1.46, 101.79 0.78, 163.5 0 M163.5 0 C166.7 1.08, 170.89 4.24, 171 7.5 M163.5 0 C168.7 2.06, 170.34 0.66, 171 7.5 M171 7.5 C170.99 10.55, 170.42 15.62, 171 22.5 M171 7.5 C170.22 12.51, 170.7 16.69, 171 22.5 M171 22.5 C170.01 26.37, 168.23 30.56, 163.5 30 M171 22.5 C171.69 25.74, 169.19 30.74, 163.5 30 M163.5 30 C114 33.29, 63.86 31.67, 7.5 30 M163.5 30 C115.39 29.33, 66.95 28.9, 7.5 30 M7.5 30 C1.06 28.45, -0.36 27.42, 0 22.5 M7.5 30 C2.56 30, 1.79 27.94, 0 22.5 M0 22.5 C0.86 20.56, -0.49 15.18, 0 7.5 M0 22.5 C-0.45 19.67, -0.37 17.15, 0 7.5 M0 7.5 C-0.54 1.29, 2.86 0.41, 7.5 0 M0 7.5 C1.65 4.2, 4.17 -2.09, 7.5 0" stroke="#1e1e1e" stroke-width="1" fill="none"></path></g><g stroke-linecap="round" transform="translate(344.59188482124364 811) rotate(0 131 14)"><path d="M7 0 M7 0 C87.67 -2.99, 165.89 -0.38, 255 0 M7 0 C92.4 1.83, 177.05 2.56, 255 0 M255 0 C261.56 -1.73, 262.61 2.96, 262 7 M255 0 C259.59 1.28, 264.27 0.13, 262 7 M262 7 C260.8 10.27, 262.49 12.18, 262 21 M262 7 C261.97 10.61, 262.68 15.18, 262 21 M262 21 C260.99 25.01, 258.73 28.55, 255 28 M262 21 C262.74 24.81, 258.11 25.77, 255 28 M255 28 C184.75 26.76, 115.8 26.92, 7 28 M255 28 C166.34 25.32, 78.21 26.63, 7 28 M7 28 C3.08 29.54, -1.79 26.02, 0 21 M7 28 C1.1 27.49, -0.66 23.53, 0 21 M0 21 C0.36 15.98, 0.3 10.91, 0 7 M0 21 C-0.2 16.06, 0.12 11.28, 0 7 M0 7 C0.29 0.78, 1.54 0.39, 7 0 M0 7 C-1.24 3.65, 2.76 -1.92, 7 0" stroke="#1e1e1e" stroke-width="1" fill="none"></path></g><g stroke-linecap="round" transform="translate(411.59188482124364 785) rotate(0 50.5 11.5)"><path d="M5.75 0 M5.75 0 C34.9 -0.6, 63.66 -0.65, 95.25 0 M5.75 0 C35.61 -0.78, 64.47 -0.17, 95.25 0 M95.25 0 C98.56 -1.44, 99.27 0.27, 101 5.75 M95.25 0 C98.09 -1.32, 99.25 1.85, 101 5.75 M101 5.75 C101.4 10.16, 100.83 12.79, 101 17.25 M101 5.75 C101.32 7.81, 100.54 10.69, 101 17.25 M101 17.25 C100.93 21.57, 98.07 23.02, 95.25 23 M101 17.25 C100.62 22.61, 99.68 22.61, 95.25 23 M95.25 23 C69.55 23, 37.94 23.81, 5.75 23 M95.25 23 C68.68 23.24, 42.34 21.38, 5.75 23 M5.75 23 C2.82 24.43, 0.21 22.62, 0 17.25 M5.75 23 C2.88 22.46, -0.45 22.03, 0 17.25 M0 17.25 C-0.6 14.72, 0.16 10.59, 0 5.75 M0 17.25 C-0.1 15.07, -0.06 11.51, 0 5.75 M0 5.75 C-0.12 3.62, 2.98 1.32, 5.75 0 M0 5.75 C-0.65 0.66, 2.27 -1.31, 5.75 0" stroke="#1e1e1e" stroke-width="1" fill="none"></path></g><g stroke-linecap="round" transform="translate(398.59188482124364 813) rotate(0 103.5 11)"><path d="M5.5 0 M5.5 0 C51.63 1.29, 94.99 -0.23, 201.5 0 M5.5 0 C83.53 0.04, 159.17 -0.1, 201.5 0 M201.5 0 C206.87 1.06, 208.32 1.27, 207 5.5 M201.5 0 C203.91 0.35, 205.69 2.12, 207 5.5 M207 5.5 C206.95 10.3, 207.21 13.47, 207 16.5 M207 5.5 C206.57 8.09, 206.94 11.07, 207 16.5 M207 16.5 C205.25 18.8, 203.89 20.93, 201.5 22 M207 16.5 C207.19 20.76, 206.04 21.06, 201.5 22 M201.5 22 C130.14 20.63, 58.82 19.22, 5.5 22 M201.5 22 C152.72 20.92, 102.91 20.99, 5.5 22 M5.5 22 C-0.08 23.56, 1.47 21.19, 0 16.5 M5.5 22 C2.61 23.2, 0.56 21.15, 0 16.5 M0 16.5 C0.33 12.19, -0.96 8.75, 0 5.5 M0 16.5 C0.02 13.37, 0.55 9.66, 0 5.5 M0 5.5 C1.68 3.42, 0.91 -0.81, 5.5 0 M0 5.5 C2.21 3.22, 2.34 0.51, 5.5 0" stroke="#1e1e1e" stroke-width="1" fill="none"></path></g><g mask="url(#mask-l83aiFohtK00mlWgcAymx)" stroke-linecap="round"><g transform="translate(793.5918848212436 792) rotate(0 -89.26661265284753 10.10523407868817)"><path d="M0.95 0.57 C-13.39 3.59, -55.51 19.31, -85.41 19.24 C-115.31 19.17, -163.08 3.41, -178.47 0.15 M-0.01 -0.17 C-14.6 3.49, -56.66 20.09, -86.57 20.38 C-116.48 20.66, -164.35 4.84, -179.48 1.55" stroke="#1e1e1e" stroke-width="1" fill="none"></path></g><g transform="translate(793.5918848212436 792) rotate(0 -89.26661265284753 10.10523407868817)"><path d="M-148.65 -1.85 C-161.39 -0.76, -170.42 1.37, -180.02 0.93 M-150.44 -1.94 C-159.76 -0.28, -169.6 0.8, -178.86 1.71" stroke="#1e1e1e" stroke-width="1" fill="none"></path></g><g transform="translate(793.5918848212436 792) rotate(0 -89.26661265284753 10.10523407868817)"><path d="M-153.9 17.99 C-164.98 12.04, -172.15 7.16, -180.02 0.93 M-155.69 17.9 C-163.13 12.66, -171.15 6.83, -178.86 1.71" stroke="#1e1e1e" stroke-width="1" fill="none"></path></g></g><mask id="mask-l83aiFohtK00mlWgcAymx"><rect x="0" y="0" fill="#fff" width="1071.5918848212436" height="912"></rect><rect x="701.4752180274204" y="799.5" fill="#000" width="14.233333587646484" height="25" opacity="1"></rect></mask><g transform="translate(701.4752180274204 799.5) rotate(0 2.8500541409757147 2.60523407868817)"><text x="7.116666793823242" y="0" font-family="Virgil, Segoe UI Emoji" font-size="20px" fill="#1e1e1e" text-anchor="middle" style="white-space: pre;" direction="ltr" dominant-baseline="text-before-edge">2</text></g><g stroke-linecap="round"><g transform="translate(286.59188482124364 801) rotate(0 -120.0477090911416 -257.4934151235968)"><path d="M-0.87 -0.47 C-40.71 -51.8, -230.49 -221.44, -238.92 -307.11 C-247.34 -392.79, -82.71 -480.22, -51.42 -514.52" stroke="#1e1e1e" stroke-width="1.5" fill="none" stroke-dasharray="1.5 7"></path></g><g transform="translate(286.59188482124364 801) rotate(0 -120.0477090911416 -257.4934151235968)"><path d="M-68.08 -490.59 C-62.71 -495.96, -58.41 -503.51, -49.64 -513.72" stroke="#1e1e1e" stroke-width="1.5" fill="none" stroke-dasharray="1.5 5"></path></g><g transform="translate(286.59188482124364 801) rotate(0 -120.0477090911416 -257.4934151235968)"><path d="M-80.72 -506.76 C-71.27 -506.96, -63.01 -509.45, -49.64 -513.72" stroke="#1e1e1e" stroke-width="1.5" fill="none" stroke-dasharray="1.5 5"></path></g></g><mask></mask><g stroke-linecap="round"><g transform="translate(917.5918848212436 372) rotate(0 -453.37519700188193 -4.098909634668388)"><path d="M-0.89 -1.11 C-152.15 -2.46, -755.58 -7.96, -906.42 -9.12 M0.84 0.92 C-150.7 -0.23, -756.33 -6.89, -907.59 -8.17" stroke="#1e1e1e" stroke-width="1" fill="none"></path></g></g><mask></mask></svg>