<svg version="1.1" xmlns="http://www.w3.org/2000/svg" viewBox="0 0 339 256">
  <!-- svg-source:excalidraw -->
  
  <defs>
    <style class="style-fonts">
      @font-face {
        font-family: "Virgil";
        src: url("https://excalidraw.com/Virgil.woff2");
      }
      @font-face {
        font-family: "Cascadia";
        src: url("https://excalidraw.com/Cascadia.woff2");
      }
    </style>
  </defs>
  <g stroke-linecap="round" transform="translate(108 10) rotate(0 110.5 118)"><path d="M32 0 M32 0 C78.64 -0.98, 120.68 -1.01, 189 0 M32 0 C79.12 -0.41, 124.83 0.58, 189 0 M189 0 C211.63 0.75, 222.2 9.84, 221 32 M189 0 C208.9 1.91, 218.82 12.16, 221 32 M221 32 C220.71 72.13, 221.26 112.4, 221 204 M221 32 C219.7 81.66, 220.17 130.44, 221 204 M221 204 C221.58 226.52, 211.59 237.09, 189 236 M221 204 C222.35 226.14, 208.69 234.78, 189 236 M189 236 C132.82 235.83, 77.35 234.84, 32 236 M189 236 C140.63 235.67, 94.43 236.4, 32 236 M32 236 C8.92 236.31, 1.64 224, 0 204 M32 236 C10.94 236.76, -1.08 223.34, 0 204 M0 204 C1.81 161.3, 0.03 120.49, 0 32 M0 204 C0.06 139.87, 1.79 76.31, 0 32 M0 32 C0.78 10.81, 10.61 -0.31, 32 0 M0 32 C1 9.31, 10.82 2.09, 32 0" stroke="#1e1e1e" stroke-width="1" fill="none"></path></g><g transform="translate(132 25) rotate(0 95.1500015258789 17.5)"><text x="0" y="0" font-family="Virgil, Segoe UI Emoji" font-size="28px" fill="#1e1e1e" text-anchor="start" style="white-space: pre;" direction="ltr" dominant-baseline="text-before-edge">Recipe: Tacos</text></g><g transform="translate(145 66.5) rotate(0 81.81666564941406 50)"><text x="0" y="0" font-family="Virgil, Segoe UI Emoji" font-size="16px" fill="#1e1e1e" text-anchor="start" style="white-space: pre;" direction="ltr" dominant-baseline="text-before-edge">8 tortillas</text><text x="0" y="20" font-family="Virgil, Segoe UI Emoji" font-size="16px" fill="#1e1e1e" text-anchor="start" style="white-space: pre;" direction="ltr" dominant-baseline="text-before-edge">1 cup sour cream</text><text x="0" y="40" font-family="Virgil, Segoe UI Emoji" font-size="16px" fill="#1e1e1e" text-anchor="start" style="white-space: pre;" direction="ltr" dominant-baseline="text-before-edge">1 box sweet corn</text><text x="0" y="60" font-family="Virgil, Segoe UI Emoji" font-size="16px" fill="#1e1e1e" text-anchor="start" style="white-space: pre;" direction="ltr" dominant-baseline="text-before-edge">▶ 1 cup salsa sauce</text><text x="0" y="80" font-family="Virgil, Segoe UI Emoji" font-size="16px" fill="#1e1e1e" text-anchor="start" style="white-space: pre;" direction="ltr" dominant-baseline="text-before-edge">▼ 1 cup guacamole</text></g><g transform="translate(167 173) rotate(0 55.96666717529297 30)"><text x="0" y="0" font-family="Virgil, Segoe UI Emoji" font-size="16px" fill="#1e1e1e" text-anchor="start" style="white-space: pre;" direction="ltr" dominant-baseline="text-before-edge">1 ripe avocado</text><text x="0" y="20" font-family="Virgil, Segoe UI Emoji" font-size="16px" fill="#1e1e1e" text-anchor="start" style="white-space: pre;" direction="ltr" dominant-baseline="text-before-edge">1 small onion</text><text x="0" y="40" font-family="Virgil, Segoe UI Emoji" font-size="16px" fill="#1e1e1e" text-anchor="start" style="white-space: pre;" direction="ltr" dominant-baseline="text-before-edge">1/4 tsp salt</text></g><g transform="translate(22 133) rotate(0 38.25 27.599999999999994)"><text x="0" y="0" font-family="Helvetica, Segoe UI Emoji" font-size="16px" fill="#1e1e1e" text-anchor="start" style="white-space: pre;" direction="ltr" dominant-baseline="text-before-edge">sub-recipe</text><text x="0" y="18.4" font-family="Helvetica, Segoe UI Emoji" font-size="16px" fill="#1e1e1e" text-anchor="start" style="white-space: pre;" direction="ltr" dominant-baseline="text-before-edge">collapsed /</text><text x="0" y="36.8" font-family="Helvetica, Segoe UI Emoji" font-size="16px" fill="#1e1e1e" text-anchor="start" style="white-space: pre;" direction="ltr" dominant-baseline="text-before-edge">expanded</text></g><g stroke-linecap="round"><g transform="translate(115 149) rotate(0 15.397394287497775 4.159651803239242)"><path d="M0.13 0.8 C5.61 2.35, 27.09 7.13, 32.06 8.14 M-1.26 0.18 C4.23 1.52, 26.07 5.3, 31.67 6.62" stroke="#1e1e1e" stroke-width="1" fill="none"></path></g><g transform="translate(115 149) rotate(0 15.397394287497775 4.159651803239242)"><path d="M17.02 10.4 C21.11 7.05, 23.01 8.02, 33.02 5.54 M16.39 8.24 C20.18 7.99, 26.1 7.08, 30.89 6.2" stroke="#1e1e1e" stroke-width="1" fill="none"></path></g><g transform="translate(115 149) rotate(0 15.397394287497775 4.159651803239242)"><path d="M19.16 -0.25 C22.66 -1.15, 24.07 2.27, 33.02 5.54 M18.53 -2.41 C21.59 0.68, 26.84 3.12, 30.89 6.2" stroke="#1e1e1e" stroke-width="1" fill="none"></path></g></g><mask></mask><g transform="translate(10 61) rotate(0 38.233333587646484 18.400000000000006)"><text x="0" y="0" font-family="Helvetica, Segoe UI Emoji" font-size="16px" fill="#1e1e1e" text-anchor="start" style="white-space: pre;" direction="ltr" dominant-baseline="text-before-edge">ingredient</text><text x="0" y="18.4" font-family="Helvetica, Segoe UI Emoji" font-size="16px" fill="#1e1e1e" text-anchor="start" style="white-space: pre;" direction="ltr" dominant-baseline="text-before-edge">w/ quantity</text></g><g stroke-linecap="round"><g transform="translate(93 72) rotate(0 24.239857224198033 2.1669892534613666)"><path d="M0.19 -0.88 C7.89 0.11, 39.47 4.22, 47.3 5.21 M-1.16 1.28 C6.83 1.94, 41.17 2.34, 49.64 3.2" stroke="#1e1e1e" stroke-width="1" fill="none"></path></g><g transform="translate(93 72) rotate(0 24.239857224198033 2.1669892534613666)"><path d="M25.11 9.12 C36.02 6.1, 44.87 4.64, 50.89 2.44 M27.57 9.56 C34.18 7.27, 42.14 5.46, 49.98 3.4" stroke="#1e1e1e" stroke-width="1" fill="none"></path></g><g transform="translate(93 72) rotate(0 24.239857224198033 2.1669892534613666)"><path d="M25.95 -7.36 C36.43 -3.91, 44.95 1.09, 50.89 2.44 M28.41 -6.93 C34.58 -3.35, 42.25 0.72, 49.98 3.4" stroke="#1e1e1e" stroke-width="1" fill="none"></path></g></g><mask></mask><g stroke-linecap="round"><g transform="translate(100 142) rotate(0 21.482867182516486 -3.5025186462188174)"><path d="M1.04 0.6 C8.31 -0.47, 35.94 -4.94, 42.84 -6 M0.12 -0.13 C7.37 -1.56, 35.37 -6.37, 42.34 -7.6" stroke="#1e1e1e" stroke-width="1" fill="none"></path></g><g transform="translate(100 142) rotate(0 21.482867182516486 -3.5025186462188174)"><path d="M24.88 4.41 C29.87 1.07, 34.55 -2.32, 42.02 -8.76 M24.22 3.91 C29.6 -0.38, 36.12 -3.46, 41.38 -6.61" stroke="#1e1e1e" stroke-width="1" fill="none"></path></g><g transform="translate(100 142) rotate(0 21.482867182516486 -3.5025186462188174)"><path d="M22.37 -9.93 C28.01 -9.9, 33.28 -9.89, 42.02 -8.76 M21.71 -10.44 C27.91 -10.22, 35.21 -8.82, 41.38 -6.61" stroke="#1e1e1e" stroke-width="1" fill="none"></path></g></g><mask></mask></svg>