<svg version="1.1" xmlns="http://www.w3.org/2000/svg" viewBox="0 0 378 212" width="378" height="212">
  <!-- svg-source:excalidraw -->
  
  <defs>
    <style class="style-fonts">
      @font-face {
        font-family: "Virgil";
        src: url("https://excalidraw.com/Virgil.woff2");
      }
      @font-face {
        font-family: "Cascadia";
        src: url("https://excalidraw.com/Cascadia.woff2");
      }
    </style>
  </defs>
  <g stroke-linecap="round" transform="translate(108 10) rotate(0 130 96)"><path d="M32 0 M32 0 C89.9 -1.1, 143.19 -1.13, 228 0 M32 0 C90.7 -0.33, 147.98 0.66, 228 0 M228 0 C250.63 0.75, 261.2 9.84, 260 32 M228 0 C247.9 1.91, 257.82 12.16, 260 32 M260 32 C259.79 62.02, 260.34 92.19, 260 160 M260 32 C258.86 69.01, 259.33 105.13, 260 160 M260 160 C260.58 182.52, 250.59 193.09, 228 192 M260 160 C261.35 182.14, 247.69 190.78, 228 192 M228 192 C158.05 191.92, 88.81 190.93, 32 192 M228 192 C167.76 191.73, 109.69 192.46, 32 192 M32 192 C8.92 192.31, 1.64 180, 0 160 M32 192 C10.94 192.76, -1.08 179.34, 0 160 M0 160 C1.68 127.88, -0.09 97.65, 0 32 M0 160 C-0.14 112.22, 1.59 65.02, 0 32 M0 32 C0.78 10.81, 10.61 -0.31, 32 0 M0 32 C1 9.31, 10.82 2.09, 32 0" stroke="#1e1e1e" stroke-width="1" fill="none"></path></g><g transform="translate(132 25) rotate(0 111.96666717529297 17.5)"><text x="0" y="0" font-family="Virgil, Segoe UI Emoji" font-size="28px" fill="#1e1e1e" text-anchor="start" style="white-space: pre;" direction="ltr" dominant-baseline="text-before-edge">Pancake Batter</text></g><g transform="translate(145 66.5) rotate(0 91.1500015258789 40)"><text x="0" y="0" font-family="Virgil, Segoe UI Emoji" font-size="16px" fill="#1e1e1e" text-anchor="start" style="white-space: pre;" direction="ltr" dominant-baseline="text-before-edge">4 pcs egg</text><text x="0" y="20" font-family="Virgil, Segoe UI Emoji" font-size="16px" fill="#1e1e1e" text-anchor="start" style="white-space: pre;" direction="ltr" dominant-baseline="text-before-edge">1/4 kilo flour</text><text x="0" y="40" font-family="Virgil, Segoe UI Emoji" font-size="16px" fill="#1e1e1e" text-anchor="start" style="white-space: pre;" direction="ltr" dominant-baseline="text-before-edge">▶ 1 cup mashed berries</text><text x="0" y="60" font-family="Virgil, Segoe UI Emoji" font-size="16px" fill="#1e1e1e" text-anchor="start" style="white-space: pre;" direction="ltr" dominant-baseline="text-before-edge">▼ 1/2 litre yogurt</text></g><g transform="translate(167 155) rotate(0 91.43333435058594 20)"><text x="0" y="0" font-family="Virgil, Segoe UI Emoji" font-size="16px" fill="#1e1e1e" text-anchor="start" style="white-space: pre;" direction="ltr" dominant-baseline="text-before-edge">1 litre milke</text><text x="0" y="20" font-family="Virgil, Segoe UI Emoji" font-size="16px" fill="#1e1e1e" text-anchor="start" style="white-space: pre;" direction="ltr" dominant-baseline="text-before-edge">10 gram yogurt-starter</text></g><g transform="translate(11 113) rotate(0 38.25 27.599999999999994)"><text x="0" y="0" font-family="Helvetica, Segoe UI Emoji" font-size="16px" fill="#1e1e1e" text-anchor="start" style="white-space: pre;" direction="ltr" dominant-baseline="text-before-edge">sub-recipe</text><text x="0" y="18.4" font-family="Helvetica, Segoe UI Emoji" font-size="16px" fill="#1e1e1e" text-anchor="start" style="white-space: pre;" direction="ltr" dominant-baseline="text-before-edge">collapsed /</text><text x="0" y="36.8" font-family="Helvetica, Segoe UI Emoji" font-size="16px" fill="#1e1e1e" text-anchor="start" style="white-space: pre;" direction="ltr" dominant-baseline="text-before-edge">expanded</text></g><g transform="translate(10 61) rotate(0 38.233333587646484 18.400000000000006)"><text x="0" y="0" font-family="Helvetica, Segoe UI Emoji" font-size="16px" fill="#1e1e1e" text-anchor="start" style="white-space: pre;" direction="ltr" dominant-baseline="text-before-edge">ingredient</text><text x="0" y="18.4" font-family="Helvetica, Segoe UI Emoji" font-size="16px" fill="#1e1e1e" text-anchor="start" style="white-space: pre;" direction="ltr" dominant-baseline="text-before-edge">w/ quantity</text></g><g stroke-linecap="round"><g transform="translate(88 75) rotate(0 26.24319701549598 0.2831350060086635)"><path d="M-0.22 -0.02 C8.5 0.03, 43.08 0.21, 52.06 0.07 M-1.79 -1.08 C7.32 -0.8, 45.1 1.46, 54.28 1.64" stroke="#1e1e1e" stroke-width="1" fill="none"></path></g><g transform="translate(88 75) rotate(0 26.24319701549598 0.2831350060086635)"><path d="M28.98 8.07 C36.16 8.59, 41.64 4.08, 52.53 3.56 M29.58 10.5 C38.72 6.8, 47.84 4.17, 53.39 0.86" stroke="#1e1e1e" stroke-width="1" fill="none"></path></g><g transform="translate(88 75) rotate(0 26.24319701549598 0.2831350060086635)"><path d="M29.75 -10.04 C36.69 -4.49, 41.95 -3.97, 52.53 3.56 M30.35 -7.61 C39.32 -4.77, 48.16 -0.86, 53.39 0.86" stroke="#1e1e1e" stroke-width="1" fill="none"></path></g></g><mask></mask><g stroke-linecap="round"><g transform="translate(94 123) rotate(0 24.4333557352424 -3.813125553228886)"><path d="M-0.32 -0.28 C8.07 -0.99, 41.03 -4.49, 49.18 -5.49 M1.72 -1.47 C10.14 -2.44, 41.12 -6.74, 48.86 -7.35" stroke="#1e1e1e" stroke-width="1" fill="none"></path></g><g transform="translate(94 123) rotate(0 24.4333557352424 -3.813125553228886)"><path d="M26.73 5.39 C32.66 2.22, 35.81 0.75, 47.61 -9.17 M27.94 3.8 C34.77 0.25, 42.04 -4.1, 48.4 -7.06" stroke="#1e1e1e" stroke-width="1" fill="none"></path></g><g transform="translate(94 123) rotate(0 24.4333557352424 -3.813125553228886)"><path d="M24.88 -11.05 C31.02 -10.8, 34.56 -8.85, 47.61 -9.17 M26.09 -12.64 C33.51 -10.56, 41.43 -9.28, 48.4 -7.06" stroke="#1e1e1e" stroke-width="1" fill="none"></path></g></g><mask></mask><g stroke-linecap="round"><g transform="translate(95 134) rotate(0 24.305604363703196 0.8542168431496293)"><path d="M0.87 1.03 C9.19 0.85, 40.66 0.28, 48.75 0.07 M-0.14 0.53 C8.11 1.07, 39.5 1.57, 47.67 1.64" stroke="#1e1e1e" stroke-width="1" fill="none"></path></g><g transform="translate(95 134) rotate(0 24.305604363703196 0.8542168431496293)"><path d="M26.26 9.29 C29.2 8.6, 33.31 7.47, 45.78 2 M24.21 10.57 C30.17 8.36, 34.21 6.51, 47.94 0.72" stroke="#1e1e1e" stroke-width="1" fill="none"></path></g><g transform="translate(95 134) rotate(0 24.305604363703196 0.8542168431496293)"><path d="M26.48 -7.47 C29.55 -4.8, 33.61 -2.58, 45.78 2 M24.44 -6.18 C30.29 -4.75, 34.28 -2.95, 47.94 0.72" stroke="#1e1e1e" stroke-width="1" fill="none"></path></g></g><mask></mask></svg>