<svg version="1.1" xmlns="http://www.w3.org/2000/svg" viewBox="0 0 1106.566650390625 743.5" width="1106.566650390625" height="743.5">
  <!-- svg-source:excalidraw -->
  
  <defs>
    <style class="style-fonts">
      @font-face {
        font-family: "Virgil";
        src: url("https://excalidraw.com/Virgil.woff2");
      }
      @font-face {
        font-family: "Cascadia";
        src: url("https://excalidraw.com/Cascadia.woff2");
      }
    </style>
  </defs>
  <g stroke-linecap="round" transform="translate(10 10) rotate(0 147 65.5)"><path d="M32 0 M32 0 C83.36 -1.19, 130.27 -0.46, 262 0 M32 0 C88.37 0.62, 144.73 0.18, 262 0 M262 0 C284.76 -1.52, 295.64 9.85, 294 32 M262 0 C281.13 2.14, 293.35 10.21, 294 32 M294 32 C294 48.77, 292.68 64.46, 294 99 M294 32 C294.24 51.77, 294.72 72.31, 294 99 M294 99 C293.96 120.69, 284.83 129.84, 262 131 M294 99 C294.47 119.31, 285.08 132.39, 262 131 M262 131 C174.98 132.67, 86.61 133.83, 32 131 M262 131 C209.21 130.01, 155.84 130.51, 32 131 M32 131 C12.13 129.92, -0.44 122.04, 0 99 M32 131 C12.95 132.54, 0.17 121.9, 0 99 M0 99 C-0.13 83.56, 1.3 66.18, 0 32 M0 99 C0.62 75.29, -0.13 49.23, 0 32 M0 32 C-1.26 11.32, 11.18 -1.22, 32 0 M0 32 C0.17 10.92, 10.79 -1.62, 32 0" stroke="#1e1e1e" stroke-width="1" fill="none"></path></g><g transform="translate(29 21) rotate(0 29.858333587646484 12.5)"><text x="0" y="0" font-family="Virgil, Segoe UI Emoji" font-size="20px" fill="#1e1e1e" text-anchor="start" style="white-space: pre;" direction="ltr" dominant-baseline="text-before-edge">Recipe</text></g><g transform="translate(24 54.19999999999999) rotate(0 136.05833435058594 38.400000000000006)"><text x="0" y="0" font-family="Cascadia, Segoe UI Emoji" font-size="16px" fill="#1971c2" text-anchor="start" style="white-space: pre;" direction="ltr" dominant-baseline="text-before-edge">:query [</text><text x="0" y="19.2" font-family="Cascadia, Segoe UI Emoji" font-size="16px" fill="#1971c2" text-anchor="start" style="white-space: pre;" direction="ltr" dominant-baseline="text-before-edge"> :recipe/name</text><text x="0" y="38.4" font-family="Cascadia, Segoe UI Emoji" font-size="16px" fill="#1971c2" text-anchor="start" style="white-space: pre;" direction="ltr" dominant-baseline="text-before-edge"> :recipe/id</text><text x="0" y="57.599999999999994" font-family="Cascadia, Segoe UI Emoji" font-size="16px" fill="#1971c2" text-anchor="start" style="white-space: pre;" direction="ltr" dominant-baseline="text-before-edge"> {:recipe/line-items R.L.I.}]</text></g><g stroke-linecap="round" transform="translate(18.5 353.5) rotate(0 131.5 55.5)"><path d="M27.75 0 M27.75 0 C85.94 0.23, 143.08 0.34, 235.25 0 M27.75 0 C101.38 -1.53, 174.56 0.12, 235.25 0 M235.25 0 C251.75 1.53, 262.04 10.9, 263 27.75 M235.25 0 C254 2.12, 261.76 7.57, 263 27.75 M263 27.75 C264.44 45.53, 265.06 62.52, 263 83.25 M263 27.75 C262.77 39.34, 262.61 51.27, 263 83.25 M263 83.25 C261.56 103.57, 254.89 111.21, 235.25 111 M263 83.25 C262.46 101.63, 252.59 109.66, 235.25 111 M235.25 111 C173.25 109.04, 111.72 110.92, 27.75 111 M235.25 111 C180.22 110.3, 125 111.71, 27.75 111 M27.75 111 C8.76 109.84, -1.96 101.01, 0 83.25 M27.75 111 C8.78 110.01, -0.15 102.19, 0 83.25 M0 83.25 C0.21 66.57, -0.9 53.48, 0 27.75 M0 83.25 C-1.33 71.8, -0.09 58.5, 0 27.75 M0 27.75 C1.06 8.32, 9.12 -0.47, 27.75 0 M0 27.75 C-1.56 8.48, 9.36 0.91, 27.75 0" stroke="#1e1e1e" stroke-width="1" fill="none"></path></g><g transform="translate(37.5 364.5) rotate(0 48.55833435058594 12.5)"><text x="0" y="0" font-family="Virgil, Segoe UI Emoji" font-size="20px" fill="#1e1e1e" text-anchor="start" style="white-space: pre;" direction="ltr" dominant-baseline="text-before-edge">Ingredient</text></g><g transform="translate(32.5 397.70000000000005) rotate(0 79.75833129882812 28.80000000000001)"><text x="0" y="0" font-family="Cascadia, Segoe UI Emoji" font-size="16px" fill="#2f9e44" text-anchor="start" style="white-space: pre;" direction="ltr" dominant-baseline="text-before-edge">:query [</text><text x="0" y="19.2" font-family="Cascadia, Segoe UI Emoji" font-size="16px" fill="#2f9e44" text-anchor="start" style="white-space: pre;" direction="ltr" dominant-baseline="text-before-edge"> :ingredient/name</text><text x="0" y="38.4" font-family="Cascadia, Segoe UI Emoji" font-size="16px" fill="#2f9e44" text-anchor="start" style="white-space: pre;" direction="ltr" dominant-baseline="text-before-edge"> :ingredient/id]</text></g><g stroke-linecap="round" transform="translate(22.5 635.5) rotate(0 131.5 49)"><path d="M24.5 0 M24.5 0 C95.56 3.36, 168.22 3.01, 238.5 0 M24.5 0 C79.18 -0.68, 131.61 -0.24, 238.5 0 M238.5 0 C255.81 -1.53, 264.16 9.51, 263 24.5 M238.5 0 C256.88 2.19, 260.87 9.52, 263 24.5 M263 24.5 C261.29 35.62, 261.28 46.62, 263 73.5 M263 24.5 C263 41.48, 262.47 59.41, 263 73.5 M263 73.5 C262.11 88.52, 253.69 97.15, 238.5 98 M263 73.5 C260.96 91.29, 254.04 98.43, 238.5 98 M238.5 98 C173.58 97.66, 108.2 95.36, 24.5 98 M238.5 98 C194.9 97.56, 152.22 97.33, 24.5 98 M24.5 98 C6.51 96.39, -0.25 88.02, 0 73.5 M24.5 98 C6.61 97.96, -1.93 92.06, 0 73.5 M0 73.5 C1.29 59.07, 1.45 46.78, 0 24.5 M0 73.5 C-0.22 59.17, 0.51 44.44, 0 24.5 M0 24.5 C-1.05 9.46, 9.75 -0.94, 24.5 0 M0 24.5 C-1.09 7.77, 8.51 -1.42, 24.5 0" stroke="#1e1e1e" stroke-width="1" fill="none"></path></g><g transform="translate(41.5 648.5) rotate(0 67.2249984741211 12.5)"><text x="0" y="0" font-family="Virgil, Segoe UI Emoji" font-size="20px" fill="#1e1e1e" text-anchor="start" style="white-space: pre;" direction="ltr" dominant-baseline="text-before-edge">DynamicRecipe</text></g><g transform="translate(36.5 681.7) rotate(0 117.29166412353516 19.19999999999999)"><text x="0" y="0" font-family="Cascadia, Segoe UI Emoji" font-size="16px" fill="#1e1e1e" text-anchor="start" style="white-space: pre;" direction="ltr" dominant-baseline="text-before-edge">(hooks/use-component ... </text><text x="0" y="19.2" font-family="Cascadia, Segoe UI Emoji" font-size="16px" fill="#1e1e1e" text-anchor="start" style="white-space: pre;" direction="ltr" dominant-baseline="text-before-edge">   Recipe ...)</text></g><g stroke-linecap="round" transform="translate(17.5 484.5) rotate(0 131.5 65.5)"><path d="M32 0 M32 0 C77.63 1.82, 123.69 -0.96, 231 0 M32 0 C105.99 -0.81, 180.85 -0.92, 231 0 M231 0 C252.47 -1.97, 263.06 10.39, 263 32 M231 0 C250.19 0.7, 262.42 12.23, 263 32 M263 32 C262.03 56.26, 262.31 78.34, 263 99 M263 32 C262.37 51.72, 264.19 71.16, 263 99 M263 99 C264.66 120.67, 251.8 131.34, 231 131 M263 99 C263.4 119.76, 253.83 131.05, 231 131 M231 131 C185.46 132.49, 142.13 129.63, 32 131 M231 131 C160.84 132.53, 90.03 131.83, 32 131 M32 131 C10.7 130.05, -0.12 119.71, 0 99 M32 131 C9.8 130.74, 1.84 118.5, 0 99 M0 99 C0.52 82.85, 0.91 63.88, 0 32 M0 99 C-0.37 80.2, -0.69 61.49, 0 32 M0 32 C-1.3 12.07, 9.33 -1.69, 32 0 M0 32 C0.39 12.87, 8.6 -1.38, 32 0" stroke="#1e1e1e" stroke-width="1" fill="none"></path></g><g transform="translate(36.5 495.5) rotate(0 77.3499984741211 12.5)"><text x="0" y="0" font-family="Virgil, Segoe UI Emoji" font-size="20px" fill="#1e1e1e" text-anchor="start" style="white-space: pre;" direction="ltr" dominant-baseline="text-before-edge">RecipeReference</text></g><g transform="translate(31.5 528.7) rotate(0 60.99166488647461 38.39999999999998)"><text x="0" y="0" font-family="Cascadia, Segoe UI Emoji" font-size="16px" fill="#1971c2" text-anchor="start" style="white-space: pre;" direction="ltr" dominant-baseline="text-before-edge">:query [</text><text x="0" y="19.2" font-family="Cascadia, Segoe UI Emoji" font-size="16px" fill="#1971c2" text-anchor="start" style="white-space: pre;" direction="ltr" dominant-baseline="text-before-edge"> :recipe/id</text><text x="0" y="38.4" font-family="Cascadia, Segoe UI Emoji" font-size="16px" fill="#1971c2" text-anchor="start" style="white-space: pre;" direction="ltr" dominant-baseline="text-before-edge"> :recipe/name</text><text x="0" y="57.599999999999994" font-family="Cascadia, Segoe UI Emoji" font-size="16px" fill="#1971c2" text-anchor="start" style="white-space: pre;" direction="ltr" dominant-baseline="text-before-edge"> :ui/expand?]</text></g><g stroke-linecap="round" transform="translate(12.5 162.5) rotate(0 159.5 86.5)"><path d="M32 0 M32 0 C130.99 2.08, 228.17 1.79, 287 0 M32 0 C108.35 -1.93, 184.48 -1.3, 287 0 M287 0 C309.59 -1.74, 317.91 12.08, 319 32 M287 0 C306.49 -0.74, 317.97 10.28, 319 32 M319 32 C319.7 64.96, 318.65 96.51, 319 141 M319 32 C319.74 66.33, 319.27 98.96, 319 141 M319 141 C319.6 161.18, 307.36 173.05, 287 173 M319 141 C320.38 163.18, 306.55 171.8, 287 173 M287 173 C217.79 174.95, 149.68 173.49, 32 173 M287 173 C212.76 172.91, 139.24 171.89, 32 173 M32 173 C12.42 172.38, 1.52 160.48, 0 141 M32 173 C12.02 171.09, 0.64 163.36, 0 141 M0 141 C-1.37 103.99, 2.19 72.6, 0 32 M0 141 C1.35 111.8, 1.17 84.63, 0 32 M0 32 C-1.45 9.34, 12.38 -1.81, 32 0 M0 32 C-0.77 11.93, 8.73 1.95, 32 0" stroke="#1e1e1e" stroke-width="1" fill="none"></path></g><g transform="translate(31.5 173.5) rotate(0 71.07499694824219 12.5)"><text x="0" y="0" font-family="Virgil, Segoe UI Emoji" font-size="20px" fill="#1e1e1e" text-anchor="start" style="white-space: pre;" direction="ltr" dominant-baseline="text-before-edge">RecipeLineItem</text></g><g transform="translate(26.5 206.70000000000005) rotate(0 150.13333129882812 57.599999999999994)"><text x="0" y="0" font-family="Cascadia, Segoe UI Emoji" font-size="16px" fill="#1e1e1e" text-anchor="start" style="white-space: pre;" direction="ltr" dominant-baseline="text-before-edge">:query [</text><text x="0" y="19.2" font-family="Cascadia, Segoe UI Emoji" font-size="16px" fill="#1e1e1e" text-anchor="start" style="white-space: pre;" direction="ltr" dominant-baseline="text-before-edge"> :r.l.i/qty</text><text x="0" y="38.4" font-family="Cascadia, Segoe UI Emoji" font-size="16px" fill="#1e1e1e" text-anchor="start" style="white-space: pre;" direction="ltr" dominant-baseline="text-before-edge"> :r.l.i/id</text><text x="0" y="57.599999999999994" font-family="Cascadia, Segoe UI Emoji" font-size="16px" fill="#1e1e1e" text-anchor="start" style="white-space: pre;" direction="ltr" dominant-baseline="text-before-edge"> :r.l.i/uom</text><text x="0" y="76.8" font-family="Cascadia, Segoe UI Emoji" font-size="16px" fill="#1e1e1e" text-anchor="start" style="white-space: pre;" direction="ltr" dominant-baseline="text-before-edge"> {:r.l.i/ingredient Ingredient}</text><text x="0" y="96" font-family="Cascadia, Segoe UI Emoji" font-size="16px" fill="#1e1e1e" text-anchor="start" style="white-space: pre;" direction="ltr" dominant-baseline="text-before-edge"> {:r.l.i/sub-recipe RecipeRef.}]</text></g><g stroke-linecap="round"><g transform="translate(297.555880646019 132.21474514156478) rotate(0 -51.9660473534928 27.904517372847124)"><path d="M1.17 0.23 C0.74 5.91, 16.85 25.72, -1.75 34.97 C-20.36 44.22, -92.36 52.28, -110.45 55.74 M0.32 -0.7 C-0.36 5.05, 15.78 26.54, -2.8 36.08 C-21.39 45.61, -93.31 53.15, -111.17 56.51" stroke="#1e1e1e" stroke-width="1" fill="none"></path></g><g transform="translate(297.555880646019 132.21474514156478) rotate(0 -51.9660473534928 27.904517372847124)"><path d="M-84.4 41.92 C-95.79 47.94, -105.92 53.46, -112.94 57.22 M-84.38 43.18 C-94.16 47.72, -104.29 53.27, -110.57 57.44" stroke="#1e1e1e" stroke-width="1" fill="none"></path></g><g transform="translate(297.555880646019 132.21474514156478) rotate(0 -51.9660473534928 27.904517372847124)"><path d="M-81.41 62.22 C-94.04 60.77, -105.28 58.79, -112.94 57.22 M-81.39 63.48 C-92.14 60.43, -103.39 58.39, -110.57 57.44" stroke="#1e1e1e" stroke-width="1" fill="none"></path></g></g><mask></mask><g stroke-linecap="round"><g transform="translate(319 294) rotate(0 -72.27094504926282 41.630029808459824)"><path d="M-0.84 -0.47 C2.59 7.57, 48.6 32.82, 19.78 47.07 C-9.04 61.32, -141.63 79.06, -173.77 85.02 M0.91 -1.76 C4.33 6.07, 47.94 31.34, 19.24 45.5 C-9.46 59.67, -139.27 76.92, -171.27 83.22" stroke="#1e1e1e" stroke-width="1" fill="none"></path></g><g transform="translate(319 294) rotate(0 -72.27094504926282 41.630029808459824)"><path d="M-145.92 69.79 C-149.59 70.46, -155.75 75.13, -173.22 81.55 M-144.55 68.87 C-151 72.42, -157.58 75.54, -172.17 82.27" stroke="#1e1e1e" stroke-width="1" fill="none"></path></g><g transform="translate(319 294) rotate(0 -72.27094504926282 41.630029808459824)"><path d="M-142.57 90.04 C-146.82 85.97, -153.77 85.92, -173.22 81.55 M-141.2 89.12 C-148.51 87.76, -155.9 85.95, -172.17 82.27" stroke="#1e1e1e" stroke-width="1" fill="none"></path></g></g><mask></mask><g stroke-linecap="round"><g transform="translate(315.01551724137926 322.9000000000001) rotate(0 -50.94350410720631 91.44148439305829)"><path d="M0.2 -0.62 C0.87 18.58, 21.68 85.22, 2.99 115.68 C-15.7 146.15, -92.61 171, -111.93 182.15 M-1.16 1.67 C-0.46 20.47, 21.16 83.56, 2.57 113.87 C-16.01 144.17, -93.36 172.42, -112.65 183.5" stroke="#1e1e1e" stroke-width="1" fill="none"></path></g><g transform="translate(315.01551724137926 322.9000000000001) rotate(0 -50.94350410720631 91.44148439305829)"><path d="M-92.62 163.81 C-95.03 166.88, -100.41 169.76, -111.78 182.83 M-91.74 161.63 C-99.23 169.68, -106.43 177.69, -112.72 183.84" stroke="#1e1e1e" stroke-width="1" fill="none"></path></g><g transform="translate(315.01551724137926 322.9000000000001) rotate(0 -50.94350410720631 91.44148439305829)"><path d="M-83.81 182.35 C-88.18 181.47, -95.45 180.39, -111.78 182.83 M-82.93 180.17 C-93.41 181.62, -103.74 183.05, -112.72 183.84" stroke="#1e1e1e" stroke-width="1" fill="none"></path></g></g><mask></mask><g transform="translate(417 132.6) rotate(0 339.7833251953125 276)"><text x="0" y="0" font-family="Cascadia, Segoe UI Emoji" font-size="20px" fill="#1e1e1e" text-anchor="start" style="white-space: pre;" direction="ltr" dominant-baseline="text-before-edge"> [{:r.l.i/qty 4, :r.l.i/id 10</text><text x="0" y="24" font-family="Cascadia, Segoe UI Emoji" font-size="20px" fill="#1e1e1e" text-anchor="start" style="white-space: pre;" direction="ltr" dominant-baseline="text-before-edge">   :r.l.i/uom "piece"</text><text x="0" y="48" font-family="Cascadia, Segoe UI Emoji" font-size="20px" fill="#1e1e1e" text-anchor="start" style="white-space: pre;" direction="ltr" dominant-baseline="text-before-edge">   :r.l.i/ingredient </text><text x="0" y="72" font-family="Cascadia, Segoe UI Emoji" font-size="20px" fill="#1e1e1e" text-anchor="start" style="white-space: pre;" direction="ltr" dominant-baseline="text-before-edge"></text><text x="0" y="96" font-family="Cascadia, Segoe UI Emoji" font-size="20px" fill="#1e1e1e" text-anchor="start" style="white-space: pre;" direction="ltr" dominant-baseline="text-before-edge"></text><text x="0" y="120" font-family="Cascadia, Segoe UI Emoji" font-size="20px" fill="#1e1e1e" text-anchor="start" style="white-space: pre;" direction="ltr" dominant-baseline="text-before-edge">  {:r.l.i/qty 0.25, :r.l.i/11</text><text x="0" y="144" font-family="Cascadia, Segoe UI Emoji" font-size="20px" fill="#1e1e1e" text-anchor="start" style="white-space: pre;" direction="ltr" dominant-baseline="text-before-edge">   :r.l.i/uom "kilo"</text><text x="0" y="168" font-family="Cascadia, Segoe UI Emoji" font-size="20px" fill="#1e1e1e" text-anchor="start" style="white-space: pre;" direction="ltr" dominant-baseline="text-before-edge">   :r.l.i/ingredient {:ingredient/name "Flour"</text><text x="0" y="192" font-family="Cascadia, Segoe UI Emoji" font-size="20px" fill="#1e1e1e" text-anchor="start" style="white-space: pre;" direction="ltr" dominant-baseline="text-before-edge">                      :ingredient/id 102}}</text><text x="0" y="216" font-family="Cascadia, Segoe UI Emoji" font-size="20px" fill="#1e1e1e" text-anchor="start" style="white-space: pre;" direction="ltr" dominant-baseline="text-before-edge">  {:r.l.i/qty 0.5, :r.l.i/12</text><text x="0" y="240" font-family="Cascadia, Segoe UI Emoji" font-size="20px" fill="#1e1e1e" text-anchor="start" style="white-space: pre;" direction="ltr" dominant-baseline="text-before-edge">   :r.l.i/uom "litre"</text><text x="0" y="264" font-family="Cascadia, Segoe UI Emoji" font-size="20px" fill="#1e1e1e" text-anchor="start" style="white-space: pre;" direction="ltr" dominant-baseline="text-before-edge">   :r.l.i/sub-recipe</text><text x="0" y="288" font-family="Cascadia, Segoe UI Emoji" font-size="20px" fill="#1e1e1e" text-anchor="start" style="white-space: pre;" direction="ltr" dominant-baseline="text-before-edge">   {:recipe/name "Yogurt"</text><text x="0" y="312" font-family="Cascadia, Segoe UI Emoji" font-size="20px" fill="#1e1e1e" text-anchor="start" style="white-space: pre;" direction="ltr" dominant-baseline="text-before-edge">    :recipe/id 2</text><text x="0" y="336" font-family="Cascadia, Segoe UI Emoji" font-size="20px" fill="#1e1e1e" text-anchor="start" style="white-space: pre;" direction="ltr" dominant-baseline="text-before-edge">    :recipe/line-items</text><text x="0" y="360" font-family="Cascadia, Segoe UI Emoji" font-size="20px" fill="#1e1e1e" text-anchor="start" style="white-space: pre;" direction="ltr" dominant-baseline="text-before-edge">    [{:r.l.i/qty 1, :r.l.i/13</text><text x="0" y="384" font-family="Cascadia, Segoe UI Emoji" font-size="20px" fill="#1e1e1e" text-anchor="start" style="white-space: pre;" direction="ltr" dominant-baseline="text-before-edge">      :r.l.i/uom "litre"</text><text x="0" y="408" font-family="Cascadia, Segoe UI Emoji" font-size="20px" fill="#1e1e1e" text-anchor="start" style="white-space: pre;" direction="ltr" dominant-baseline="text-before-edge">      :r.l.i/ingredient {:ingredient/name "Milk"</text><text x="0" y="432" font-family="Cascadia, Segoe UI Emoji" font-size="20px" fill="#1e1e1e" text-anchor="start" style="white-space: pre;" direction="ltr" dominant-baseline="text-before-edge">                         :ingredient/id 103}}</text><text x="0" y="456" font-family="Cascadia, Segoe UI Emoji" font-size="20px" fill="#1e1e1e" text-anchor="start" style="white-space: pre;" direction="ltr" dominant-baseline="text-before-edge">     {:r.l.i/qty 10, :r.l.i/14</text><text x="0" y="480" font-family="Cascadia, Segoe UI Emoji" font-size="20px" fill="#1e1e1e" text-anchor="start" style="white-space: pre;" direction="ltr" dominant-baseline="text-before-edge">      :r.l.i/uom "gram"</text><text x="0" y="504" font-family="Cascadia, Segoe UI Emoji" font-size="20px" fill="#1e1e1e" text-anchor="start" style="white-space: pre;" direction="ltr" dominant-baseline="text-before-edge">      :r.l.i/ingredient {:ingredient/name "Yogurt Starter"</text><text x="0" y="528" font-family="Cascadia, Segoe UI Emoji" font-size="20px" fill="#1e1e1e" text-anchor="start" style="white-space: pre;" direction="ltr" dominant-baseline="text-before-edge">                         :ingredient/id 104}}]}}]}</text></g><g transform="translate(417.2166748046875 56.99999999999994) rotate(0 175.75 36)"><text x="0" y="0" font-family="Cascadia, Segoe UI Emoji" font-size="20px" fill="#1971c2" text-anchor="start" style="white-space: pre;" direction="ltr" dominant-baseline="text-before-edge">{:recipe/name "Pancake Batter"</text><text x="0" y="24" font-family="Cascadia, Segoe UI Emoji" font-size="20px" fill="#1971c2" text-anchor="start" style="white-space: pre;" direction="ltr" dominant-baseline="text-before-edge"> :recipe/id 1</text><text x="0" y="48" font-family="Cascadia, Segoe UI Emoji" font-size="20px" fill="#1971c2" text-anchor="start" style="white-space: pre;" direction="ltr" dominant-baseline="text-before-edge"> :recipe/line-items</text></g><g transform="translate(418 204) rotate(0 158.1750030517578 24)"><text x="0" y="0" font-family="Cascadia, Segoe UI Emoji" font-size="20px" fill="#2f9e44" text-anchor="start" style="white-space: pre;" direction="ltr" dominant-baseline="text-before-edge">   {:ingredient/name "Eggs"</text><text x="0" y="24" font-family="Cascadia, Segoe UI Emoji" font-size="20px" fill="#2f9e44" text-anchor="start" style="white-space: pre;" direction="ltr" dominant-baseline="text-before-edge">    :ingredient/id 101}}</text></g><g stroke-linecap="round"><g transform="translate(415 96) rotate(0 -124.33294973748735 1.6918409804813592)"><path d="M0.9 -0.38 C-40.61 0.33, -207.06 3.02, -248.41 3.99 M-0.08 -1.62 C-41.85 -0.78, -208.33 4.18, -249.57 5" stroke="#1971c2" stroke-width="1" fill="none"></path></g><g transform="translate(415 96) rotate(0 -124.33294973748735 1.6918409804813592)"><path d="M-222.27 -6.65 C-233.3 -0.47, -240.85 1.91, -248.84 6.29 M-221.81 -5.62 C-227.89 -2.45, -233.81 -1.29, -249.22 4.81" stroke="#1971c2" stroke-width="1" fill="none"></path></g><g transform="translate(415 96) rotate(0 -124.33294973748735 1.6918409804813592)"><path d="M-221.75 13.86 C-232.92 12.74, -240.66 7.81, -248.84 6.29 M-221.28 14.9 C-227.65 13.65, -233.69 10.4, -249.22 4.81" stroke="#1971c2" stroke-width="1" fill="none"></path></g></g><mask></mask><g stroke-linecap="round"><g transform="translate(446 229) rotate(0 -124.14399821646509 98.18482008706778)"><path d="M0.77 0.17 C-11.74 23.67, -33.25 108.07, -74.89 140.9 C-116.52 173.73, -220.12 187.8, -249.06 197.15 M-0.29 -0.78 C-12.88 22.84, -34.18 109.17, -75.25 141.87 C-116.32 174.56, -217.83 186.55, -246.72 195.41" stroke="#2f9e44" stroke-width="1" fill="none"></path></g><g transform="translate(446 229) rotate(0 -124.14399821646509 98.18482008706778)"><path d="M-221.12 181.16 C-231.25 182.79, -235.5 188.76, -244.99 197.03 M-221.47 179.6 C-229.96 184.36, -238.9 190.64, -246.15 196.08" stroke="#2f9e44" stroke-width="1" fill="none"></path></g><g transform="translate(446 229) rotate(0 -124.14399821646509 98.18482008706778)"><path d="M-216.69 201.2 C-228.2 196.53, -233.85 196.16, -244.99 197.03 M-217.04 199.64 C-227.13 197.72, -237.54 197.34, -246.15 196.08" stroke="#2f9e44" stroke-width="1" fill="none"></path></g></g><mask></mask><g stroke-linecap="round"><g transform="translate(441 176) rotate(0 -144.44298581864686 42.76154809799044)"><path d="M-0.8 0.65 C-49.26 14.91, -241.93 71.48, -289.87 85.58 M0.98 -0.06 C-47.19 13.84, -239.3 69.3, -287.61 83.76" stroke="#1e1e1e" stroke-width="1" fill="none"></path></g><g transform="translate(441 176) rotate(0 -144.44298581864686 42.76154809799044)"><path d="M-262.37 64.54 C-271.57 73.46, -281.21 79.13, -286.48 85.57 M-264.21 65.05 C-268.79 69.47, -275.73 73.74, -286.62 82.86" stroke="#1e1e1e" stroke-width="1" fill="none"></path></g><g transform="translate(441 176) rotate(0 -144.44298581864686 42.76154809799044)"><path d="M-256.59 84.23 C-267.97 85.7, -279.78 83.96, -286.48 85.57 M-258.44 84.74 C-264.5 84.42, -272.81 84.01, -286.62 82.86" stroke="#1e1e1e" stroke-width="1" fill="none"></path></g></g><mask></mask></svg>